Coordinates
version=1
nRows=5
nColumns=63
inDegrees=yes

Units are S.I. units (second, meters, Newtons, ...)
If the header above contains a line with 'inDegrees', this indicates whether rotational values are in degrees (yes) or radians (no).

endheader
time	pelvis_tilt	pelvis_list	pelvis_rotation	pelvis_tx	pelvis_ty	pelvis_tz	hip_flexion_r	hip_adduction_r	hip_rotation_r	knee_angle_r	knee_angle_r_beta	ankle_angle_r	subtalar_angle_r	mtp_angle_r	hip_flexion_l	hip_adduction_l	hip_rotation_l	knee_angle_l	knee_angle_l_beta	ankle_angle_l	subtalar_angle_l	mtp_angle_l	L5_S1_Flex_Ext	L5_S1_Lat_Bending	L5_S1_axial_rotation	L4_L5_Flex_Ext	L4_L5_Lat_Bending	L4_L5_axial_rotation	L3_L4_Flex_Ext	L3_L4_Lat_Bending	L3_L4_axial_rotation	L2_L3_Flex_Ext	L2_L3_Lat_Bending	L2_L3_axial_rotation	L1_L2_Flex_Ext	L1_L2_Lat_Bending	L1_L2_axial_rotation	L1_T12_Flex_Ext	L1_T12_Lat_Bending	L1_T12_axial_rotation	Abs_r3	Abs_r2	Abs_r1	Abs_t1	Abs_t2	neck_flexion	neck_bending	neck_rotation	arm_flex_r	arm_add_r	arm_rot_r	elbow_flex_r	pro_sup_r	wrist_flex_r	wrist_dev_r	arm_flex_l	arm_add_l	arm_rot_l	elbow_flex_l	pro_sup_l	wrist_flex_l	wrist_dev_l
      7.50000000	    -54.70711546	     -6.66933417	     -0.88269919	     -0.25782897	      1.06904837	     -0.04253143	     89.43044430	     -2.64484853	     -8.84357783	     67.69211005	      1.18145020	      0.48863044	     -1.27973514	      0.00000000	    125.55925821	     -2.98603224	      4.86666706	     90.64829411	      1.58211119	      6.31567985	     -9.39783497	      0.00000000	     -0.09735523	      1.13593092	      0.52252762	     -0.18079839	      1.51078812	      0.55518560	     -0.15994490	      2.76190244	      0.55518560	     -0.11126729	      2.76190244	      0.45721167	     -0.09040406	      2.31639033	      0.42455369	     -0.05562878	      1.75955699	      0.39189572	     -0.69539864	     12.84987774	      2.90614187	      0.00000000	      0.00000000	     -0.00000000	      0.00000000	      0.00000000	     59.90510829	    -13.95108061	     13.72749168	     40.54892488	     23.57790614	      0.00000000	      5.00000015	     57.89109726	     -7.34670534	      9.54843796	     40.69194751	     23.12724564	      0.00000000	      5.00000015
      7.50800000	    -54.75631813	     -6.90142825	     -1.10041550	     -0.25824763	      1.06908095	     -0.04237179	     90.33319918	     -2.53781749	     -8.82719551	     70.09656429	      1.22341584	      1.16326850	     -1.70327631	      0.00000000	    124.53267627	     -3.15073715	      5.12698851	     88.31591828	      1.54140356	      5.86485204	     -9.28508364	      0.00000000	     -0.09733818	      1.17449489	      0.54487629	     -0.18076673	      1.56207821	      0.57893106	     -0.15991689	      2.85566688	      0.57893106	     -0.11124780	      2.85566688	      0.47676675	     -0.09038823	      2.39502998	      0.44271199	     -0.05561903	      1.81929259	      0.40865722	     -0.69527687	     13.28612111	      3.03043847	      0.00000000	      0.00000000	     -0.00000000	      0.00000000	      0.00000000	     60.12609477	    -14.06558005	     14.23305359	     40.50265188	     23.60045257	      0.00000000	      5.00000015	     57.87616122	     -7.38589044	      9.50474974	     40.65748684	     23.08843128	      0.00000000	      5.00000015
      7.51700000	    -54.81766964	     -7.11616305	     -1.39075666	     -0.25865418	      1.06910755	     -0.04204118	     91.28187228	     -2.33383678	     -8.74286149	     72.47678033	      1.26495845	      1.86933075	     -2.12809515	      0.00000000	    123.44337064	     -3.38805293	      5.44576651	     85.95363989	      1.50017402	      5.34927042	     -9.10731300	      0.00000000	     -0.09702218	      1.20922340	      0.58479615	     -0.18017989	      1.60826713	      0.62134591	     -0.15939774	      2.94010579	      0.62134591	     -0.11088665	      2.94010579	      0.51169663	     -0.09009479	      2.46584837	      0.47514687	     -0.05543847	      1.87308705	      0.43859711	     -0.69301972	     13.67897700	      3.25246076	      0.00000000	      0.00000000	     -0.00000000	      0.00000000	      0.00000000	     60.34220416	    -14.18646396	     14.65821891	     40.45798367	     23.62112789	      0.00000000	      5.00000015	     57.86350083	     -7.38540947	      9.49520884	     40.66444746	     23.06002538	      0.00000000	      5.00000015
      7.52500000	    -54.86372203	     -7.03748218	     -1.30573779	     -0.25913323	      1.06919844	     -0.04217020	     92.32506837	     -2.60728599	     -8.48958472	     74.98328332	      1.30870518	      2.71765066	     -2.71000454	      0.00000000	    122.12994407	     -3.47035469	      5.24223776	     83.38865837	      1.45540665	      4.79663960	     -8.88879249	      0.00000000	     -0.09875628	      1.20822579	      0.54028196	     -0.18340029	      1.60694031	      0.57404959	     -0.16224670	      2.93768019	      0.57404959	     -0.11286856	      2.93768019	      0.47274672	     -0.09170508	      2.46381404	      0.43897909	     -0.05642934	      1.87154175	      0.40521147	     -0.70540626	     13.66769182	      3.00488619	      0.00000000	      0.00000000	     -0.00000000	      0.00000000	      0.00000000	     60.57399569	    -14.23240626	     15.52703362	     40.43773734	     23.65974470	      0.00000000	      5.00000015	     57.92919104	     -7.57675916	      9.47646024	     40.55235680	     22.99612871	      0.00000000	      5.00000015
      7.53300000	    -54.90377753	     -7.00482040	     -1.48163739	     -0.25943685	      1.06920039	     -0.04199676	     93.40806426	     -2.54322438	     -8.11424390	     77.46135370	      1.35195567	      3.54110797	     -3.03148529	      0.00000000	    120.79863760	     -3.64921517	      5.35551363	     80.93360918	      1.41255796	      4.25065000	     -8.71137737	      0.00000000	     -0.09847892	      1.21326671	      0.56130118	     -0.18288519	      1.61364472	      0.59638250	     -0.16179101	      2.94993667	      0.59638250	     -0.11255155	      2.94993667	      0.49113853	     -0.09144752	      2.47409347	      0.45605721	     -0.05627085	      1.87935013	      0.42097588	     -0.70342505	     13.72471565	      3.12178876	      0.00000000	      0.00000000	     -0.00000000	      0.00000000	      0.00000000	     60.70711467	    -14.31574867	     16.01887977	     40.43637104	     23.65647413	      0.00000000	      5.00000015	     57.95555789	     -7.64139715	      9.52848071	     40.50093263	     22.94141652	      0.00000000	      5.00000015
